<svg width="36" height="36" viewBox="0 0 36 36" fill="none" xmlns="http://www.w3.org/2000/svg">
<path fill-rule="evenodd" clip-rule="evenodd" d="M18.3077 35C27.6163 35 35.1624 27.3888 35.1624 18C35.1624 8.61116 27.6163 1 18.3077 1C8.99911 1 1.453 8.61116 1.453 18C1.453 27.3888 8.99911 35 18.3077 35Z" stroke="#E5E5E5"/>
<path fill-rule="evenodd" clip-rule="evenodd" d="M16.548 17.399C16.548 17.399 18.2732 17.2748 18.2732 15.2875C18.2732 13.3056 16.8621 12.3334 15.0707 12.3334H9.1781V23.4312H15.0702C15.0702 23.4312 18.6696 23.5394 18.6696 20.1533C18.6699 20.1533 18.8243 17.399 16.548 17.399ZM19.1162 19.4189C19.1162 19.3971 19.1218 15.1577 23.4651 15.1577C28.0512 15.1577 27.4063 19.9749 27.4063 19.9749H21.5415C21.5415 22.0327 23.5313 21.9029 23.5313 21.9029C25.4163 21.9029 25.3503 20.7095 25.3503 20.7095H27.3401C27.3401 23.8795 23.4651 23.6636 23.4651 23.6636C18.8187 23.6636 19.1162 19.4189 19.1162 19.4189ZM23.5093 16.7832C21.7619 16.7832 21.5193 18.4897 21.5193 18.4897H25.2345C25.2345 18.4897 25.2621 16.7832 23.5093 16.7832ZM15.0705 14.3044H11.7745V16.7832H14.8665C15.4012 16.7832 15.8698 16.6156 15.8698 15.46C15.8698 14.3044 15.0705 14.3044 15.0705 14.3044ZM14.9053 21.4601H11.7745V18.4897H15.0705C15.0705 18.4897 16.2668 18.479 16.2612 20.018C16.2612 21.3144 15.3739 21.4494 14.9053 21.4601ZM21.0288 14.3533V12.9868H25.7031V14.3533H21.0288Z" fill="#666666"/>
</svg>
