<svg width="10" height="16" viewBox="0 0 10 16" fill="#666666" xmlns="http://www.w3.org/2000/svg">
<path d="M8.90463 0.211587L6.92261 0.208374C4.69589 0.208374 3.25688 1.70004 3.25688 4.00878V5.76102H1.26405C1.09184 5.76102 0.952393 5.90207 0.952393 6.07606V8.61486C0.952393 8.78885 1.092 8.92974 1.26405 8.92974H3.25688V15.3359C3.25688 15.5099 3.39632 15.6508 3.56853 15.6508H6.1686C6.34081 15.6508 6.48026 15.5098 6.48026 15.3359V8.92974H8.81034C8.98254 8.92974 9.12199 8.78885 9.12199 8.61486L9.12295 6.07606C9.12295 5.99252 9.09003 5.91252 9.03168 5.8534C8.97332 5.79428 8.89382 5.76102 8.81114 5.76102H6.48026V4.27562C6.48026 3.56168 6.64865 3.19925 7.56913 3.19925L8.90431 3.19877C9.07636 3.19877 9.21581 3.05771 9.21581 2.88389V0.526467C9.21581 0.352801 9.07652 0.211908 8.90463 0.211587Z"/>
</svg>
