<svg width="36" height="36" viewBox="0 0 36 36" fill="none" xmlns="http://www.w3.org/2000/svg">
<path fill-rule="evenodd" clip-rule="evenodd" d="M18.1538 35C27.4624 35 35.0085 27.3888 35.0085 18C35.0085 8.61116 27.4624 1 18.1538 1C8.84524 1 1.29913 8.61116 1.29913 18C1.29913 27.3888 8.84524 35 18.1538 35Z" stroke="#E5E5E5"/>
<path d="M21.9046 10.2116L19.9226 10.2084C17.6959 10.2084 16.2569 11.7 16.2569 14.0088V15.761H14.264C14.0918 15.761 13.9524 15.9021 13.9524 16.0761V18.6149C13.9524 18.7888 14.092 18.9297 14.264 18.9297H16.2569V25.3359C16.2569 25.5099 16.3963 25.6508 16.5685 25.6508H19.1686C19.3408 25.6508 19.4803 25.5098 19.4803 25.3359V18.9297H21.8103C21.9825 18.9297 22.122 18.7888 22.122 18.6149L22.1229 16.0761C22.1229 15.9925 22.09 15.9125 22.0317 15.8534C21.9733 15.7943 21.8938 15.761 21.8111 15.761H19.4803V14.2756C19.4803 13.5617 19.6486 13.1992 20.5691 13.1992L21.9043 13.1988C22.0764 13.1988 22.2158 13.0577 22.2158 12.8839V10.5265C22.2158 10.3528 22.0765 10.2119 21.9046 10.2116Z" fill="#666666"/>
</svg>
