<svg width="36" height="36" viewBox="0 0 36 36" fill="none" xmlns="http://www.w3.org/2000/svg">
<path fill-rule="evenodd" clip-rule="evenodd" d="M17.7692 35C27.0778 35 34.6239 27.3888 34.6239 18C34.6239 8.61116 27.0778 1 17.7692 1C8.4606 1 0.91449 8.61116 0.91449 18C0.91449 27.3888 8.4606 35 17.7692 35Z" stroke="#E5E5E5"/>
<path d="M8.07591 17.9619C7.95767 14.7604 10.6846 11.8019 13.801 11.7635C15.3893 11.6242 16.9345 12.2585 18.1366 13.2929C17.6435 13.8505 17.1418 14.4015 16.6059 14.9174C15.5477 14.2563 14.2737 13.7525 13.0369 14.1999C11.0422 14.784 9.83417 17.206 10.5723 19.2127C11.1837 21.3085 13.6626 22.4587 15.6054 21.5783C16.6114 21.2079 17.2747 20.2534 17.5657 19.2277C16.4128 19.2041 15.2596 19.2189 14.1066 19.1861C14.1037 18.4807 14.1009 17.778 14.1037 17.0726C16.0264 17.0696 17.952 17.0637 19.8776 17.0814C19.9958 18.8098 19.7479 20.6595 18.6552 22.0467C17.159 24.0268 14.3948 24.608 12.1461 23.8312C9.75952 23.0251 8.02397 20.5527 8.07591 17.9619Z" fill="#666666"/>
<path d="M23.6254 15.2937C24.1962 15.2937 24.7668 15.2937 25.3403 15.2937C25.3434 15.8837 25.3489 16.4766 25.3521 17.0664C25.9255 17.0723 26.5021 17.0752 27.0759 17.0782C27.0759 17.6682 27.0759 18.2549 27.0759 18.8449C26.5024 18.8479 25.9258 18.8508 25.3521 18.8538C25.3463 19.4467 25.3434 20.0364 25.3403 20.6294C24.7668 20.6264 24.1929 20.6294 23.6223 20.6294C23.6168 20.0364 23.6168 19.4467 23.6108 18.8567C23.0373 18.8505 22.4607 18.8479 21.887 18.8446C21.887 18.2547 21.887 17.6679 21.887 17.0779C22.4607 17.0749 23.0344 17.072 23.6108 17.0661C23.6136 16.4766 23.6194 15.8837 23.6254 15.2937Z" fill="#666666"/>
</svg>
