<svg width="36" height="36" viewBox="0 0 36 36" fill="none" xmlns="http://www.w3.org/2000/svg">
<path fill-rule="evenodd" clip-rule="evenodd" d="M17.8462 35C27.1548 35 34.7009 27.3888 34.7009 18C34.7009 8.61116 27.1548 1 17.8462 1C8.53756 1 0.991455 8.61116 0.991455 18C0.991455 27.3888 8.53756 35 17.8462 35Z" stroke="#E5E5E5"/>
<path fill-rule="evenodd" clip-rule="evenodd" d="M14.6859 9.5H21.0064C23.9149 9.5 26.2735 11.8789 26.2735 14.8125V21.1875C26.2735 24.1211 23.9149 26.5 21.0064 26.5H14.6859C11.7774 26.5 9.41882 24.1211 9.41882 21.1875V14.8125C9.41882 11.8789 11.7774 9.5 14.6859 9.5ZM21.0064 24.9062C23.0395 24.9062 24.6934 23.2381 24.6934 21.1875V14.8125C24.6934 12.7619 23.0395 11.0938 21.0064 11.0938H14.6859C12.6528 11.0938 10.999 12.7619 10.999 14.8125V21.1875C10.999 23.2381 12.6528 24.9062 14.6859 24.9062H21.0064Z" fill="#666666"/>
<path fill-rule="evenodd" clip-rule="evenodd" d="M13.6325 18C13.6325 15.6529 15.5192 13.75 17.8462 13.75C20.1732 13.75 22.0599 15.6529 22.0599 18C22.0599 20.3471 20.1732 22.25 17.8462 22.25C15.5192 22.25 13.6325 20.3471 13.6325 18ZM15.2126 18C15.2126 19.4641 16.3946 20.6562 17.8462 20.6562C19.2978 20.6562 20.4797 19.4641 20.4797 18C20.4797 16.5348 19.2978 15.3438 17.8462 15.3438C16.3946 15.3438 15.2126 16.5348 15.2126 18Z" fill="#666666"/>
<path d="M22.411 14.4584C22.9927 14.4584 23.4644 13.9827 23.4644 13.3959C23.4644 12.8091 22.9927 12.3334 22.411 12.3334C21.8292 12.3334 21.3575 12.8091 21.3575 13.3959C21.3575 13.9827 21.8292 14.4584 22.411 14.4584Z" fill="#666666"/>
</svg>
