<svg width="36" height="36" viewBox="0 0 36 36" fill="none" xmlns="http://www.w3.org/2000/svg">
<path fill-rule="evenodd" clip-rule="evenodd" d="M18.2308 35C27.5394 35 35.0855 27.3888 35.0855 18C35.0855 8.61116 27.5394 1 18.2308 1C8.92221 1 1.3761 8.61116 1.3761 18C1.3761 27.3888 8.92221 35 18.2308 35Z" stroke="#E5E5E5"/>
<path d="M22.9985 11.8004C21.9543 10.7738 20.5091 10.2084 18.9294 10.2084C16.5162 10.2084 15.0319 11.2214 14.2118 12.0712C13.201 13.1184 12.6214 14.5089 12.6214 15.8863C12.6214 17.6156 13.3277 18.943 14.5106 19.4368C14.59 19.4701 14.6699 19.4869 14.7483 19.4869C14.9978 19.4869 15.1955 19.3197 15.264 19.0514C15.3039 18.8976 15.3965 18.5179 15.4367 18.3531C15.5228 18.0277 15.4532 17.8712 15.2654 17.6445C14.9233 17.23 14.764 16.7398 14.764 16.1018C14.764 14.2069 16.1419 12.1929 18.6956 12.1929C20.7218 12.1929 21.9805 13.3723 21.9805 15.2708C21.9805 16.4688 21.7286 17.5782 21.2709 18.3949C20.9528 18.9624 20.3936 19.6388 19.535 19.6388C19.1637 19.6388 18.8302 19.4827 18.6198 19.2104C18.421 18.953 18.3555 18.6205 18.4354 18.2739C18.5257 17.8824 18.6489 17.474 18.7681 17.0791C18.9855 16.358 19.191 15.6769 19.191 15.1335C19.191 14.204 18.633 13.5794 17.8026 13.5794C16.7473 13.5794 15.9206 14.6771 15.9206 16.0783C15.9206 16.7656 16.0989 17.2795 16.1796 17.4769C16.0467 18.0538 15.2566 21.4831 15.1067 22.1298C15.0201 22.5073 14.498 25.489 15.3621 25.7267C16.3329 25.9938 17.2006 23.0899 17.289 22.7618C17.3605 22.4949 17.611 21.4858 17.7645 20.8655C18.2331 21.3278 18.9877 21.6403 19.722 21.6403C21.1061 21.6403 22.3509 21.0024 23.2271 19.8443C24.0769 18.721 24.5449 17.1553 24.5449 15.436C24.5449 14.0918 23.9812 12.7666 22.9985 11.8004Z" fill="#666666"/>
</svg>
