<svg width="19" height="12" viewBox="0 0 19 12" fill="none" xmlns="http://www.w3.org/2000/svg">
<path fill-rule="evenodd" clip-rule="evenodd" d="M7.54797 5.39903C7.54797 5.39903 9.27316 5.27481 9.27316 3.28746C9.27316 1.30564 7.86213 0.333374 6.07072 0.333374H0.178101V11.4312H6.07019C6.07019 11.4312 9.66961 11.5394 9.66961 8.15326C9.66988 8.15326 9.82428 5.39903 7.54797 5.39903ZM10.1162 7.41894C10.1162 7.39714 10.1218 3.15772 14.4651 3.15772C19.0512 3.15772 18.4063 7.97493 18.4063 7.97493H12.5415C12.5415 10.0327 14.5313 9.90292 14.5313 9.90292C16.4163 9.90292 16.3503 8.70951 16.3503 8.70951H18.3401C18.3401 11.8795 14.4651 11.6636 14.4651 11.6636C9.81865 11.6636 10.1162 7.41894 10.1162 7.41894ZM14.5093 4.78316C12.7619 4.78316 12.5193 6.48974 12.5193 6.48974H16.2345C16.2345 6.48974 16.2621 4.78316 14.5093 4.78316ZM6.07046 2.30443H2.77447V4.78316H5.86647C6.40124 4.78316 6.86979 4.6156 6.86979 3.46001C6.86979 2.30443 6.07046 2.30443 6.07046 2.30443ZM5.90534 9.46012H2.77447V6.48974H6.07046C6.07046 6.48974 7.26678 6.47898 7.26115 8.018C7.26115 9.31436 6.37389 9.44935 5.90534 9.46012ZM12.0288 2.35328V0.986804H16.7031V2.35328H12.0288Z" fill="#666666"/>
</svg>
