<svg width="34" height="34" viewBox="0 0 35 34" fill="none" xmlns="http://www.w3.org/2000/svg">
<path fill-rule="evenodd" clip-rule="evenodd" d="M17.6923 34C27.0009 34 34.547 26.3888 34.547 17C34.547 7.61116 27.0009 0 17.6923 0C8.38369 0 0.837585 7.61116 0.837585 17C0.837585 26.3888 8.38369 34 17.6923 34Z" fill="#C9A96E"/>
<path d="M25.4174 12.1344C24.8491 12.3903 24.2378 12.5634 23.5967 12.6407C24.2512 12.2424 24.7536 11.6123 24.9907 10.8602C24.3782 11.2292 23.6995 11.4968 22.9778 11.6411C22.3996 11.0158 21.5758 10.625 20.6635 10.625C18.9133 10.625 17.4937 12.0665 17.4937 13.8438C17.4937 14.0961 17.5219 14.3416 17.5762 14.5773C14.9419 14.4432 12.6061 13.1618 11.0426 11.2138C10.7698 11.6891 10.6133 12.2424 10.6133 12.8322C10.6133 13.9487 11.1733 14.9343 12.0234 15.5114C11.504 15.4948 11.0149 15.35 10.5878 15.1083C10.5875 15.122 10.5875 15.1357 10.5875 15.1491C10.5875 16.7087 11.6806 18.0095 13.1304 18.305C12.8647 18.3789 12.5841 18.4181 12.2955 18.4181C12.0907 18.4181 11.8924 18.3981 11.699 18.3607C12.1023 19.6392 13.2727 20.5698 14.6601 20.596C13.575 21.4594 12.2085 21.9739 10.723 21.9739C10.4677 21.9739 10.2147 21.9587 9.96722 21.9287C11.3693 22.8423 13.0358 23.375 14.8258 23.375C20.6562 23.375 23.8446 18.4704 23.8446 14.2166C23.8446 14.0771 23.8416 13.9381 23.8354 13.8003C24.4552 13.3466 24.9926 12.7799 25.4174 12.1344Z" fill="white"/>
</svg>
