<svg width="17" height="14" viewBox="0 0 17 14" fill="none" xmlns="http://www.w3.org/2000/svg">
<path d="M16.4174 2.1344C15.8491 2.39029 15.2378 2.56336 14.5967 2.64066C15.2512 2.24242 15.7536 1.61231 15.9907 0.860244C15.3782 1.22919 14.6995 1.49684 13.9778 1.64111C13.3996 1.01579 12.5758 0.625 11.6635 0.625C9.91326 0.625 8.49373 2.06647 8.49373 3.84377C8.49373 4.09605 8.52186 4.34162 8.57623 4.57734C5.94187 4.44316 3.60607 3.1618 2.04257 1.21383C1.76978 1.68912 1.61328 2.24242 1.61328 2.83222C1.61328 3.94867 2.1733 4.93429 3.02337 5.51136C2.50401 5.4948 2.01492 5.35005 1.58775 5.10832C1.58752 5.12201 1.58752 5.13569 1.58752 5.14913C1.58752 6.70871 2.6806 8.00951 4.13039 8.30501C3.86469 8.37894 3.58409 8.41807 3.29545 8.41807C3.09074 8.41807 2.8924 8.39814 2.69904 8.3607C3.10232 9.63918 4.2727 10.5698 5.66009 10.596C4.57505 11.4594 3.20846 11.9739 1.72297 11.9739C1.46767 11.9739 1.21473 11.9587 0.967224 11.9287C2.36927 12.8423 4.03584 13.375 5.8258 13.375C11.6562 13.375 14.8446 8.4704 14.8446 4.21656C14.8446 4.07709 14.8416 3.9381 14.8354 3.80032C15.4552 3.34663 15.9926 2.77989 16.4174 2.1344Z" fill="#666666"/>
</svg>
